HIERARCHY
ROOT root
{
	OFFSET 0.000000 0.000000 0.000000
	CHANNELS 6 Xposition Yposition Zposition Zrotation Yrotation Xrotation
	JOINT lhip
	{
		OFFSET 0.058581 -0.082280 -0.017664
		CHANNELS 3 Zrotation Yrotation Xrotation
		JOINT lknee
		{
			OFFSET 0.043451 -0.386469 0.008037
			CHANNELS 3 Zrotation Yrotation Xrotation
			JOINT lankle
			{
				OFFSET -0.014790 -0.426874 -0.037428
				CHANNELS 3 Zrotation Yrotation Xrotation
				JOINT ltoe
				{
					OFFSET 0.041054 -0.060286 0.122042
					CHANNELS 3 Zrotation Yrotation Xrotation
					End Site
					{
						OFFSET 0.000000 0.000000 0.000000
					}
				}
			}
		}
	}
	JOINT rhip
	{
		OFFSET -0.060310 -0.090513 -0.013543
		CHANNELS 3 Zrotation Yrotation Xrotation
		JOINT rknee
		{
			OFFSET -0.043257 -0.383688 -0.004843
			CHANNELS 3 Zrotation Yrotation Xrotation
			JOINT rankle
			{
				OFFSET 0.019056 -0.420046 -0.034562
				CHANNELS 3 Zrotation Yrotation Xrotation
				JOINT rtoe
				{
					OFFSET -0.034840 -0.062106 0.130323
					CHANNELS 3 Zrotation Yrotation Xrotation
					End Site
					{
						OFFSET 0.000000 0.000000 0.000000
					}
				}
			}
		}
	}
	JOINT lowerback
	{
		OFFSET 0.004439 0.124404 -0.038385
		CHANNELS 3 Zrotation Yrotation Xrotation
		JOINT upperback
		{
			OFFSET 0.004488 0.137956 0.026820
			CHANNELS 3 Zrotation Yrotation Xrotation
			JOINT chest
			{
				OFFSET -0.002265 0.056032 0.002855
				CHANNELS 3 Zrotation Yrotation Xrotation
				JOINT lowerneck
				{
					OFFSET -0.013390 0.211636 -0.033468
					CHANNELS 3 Zrotation Yrotation Xrotation
					JOINT upperneck
					{
						OFFSET 0.010113 0.088937 0.050410
						CHANNELS 3 Zrotation Yrotation Xrotation
						End Site
						{
							OFFSET 0.000000 0.000000 0.000000
						}
					}
				}
				JOINT lclavicle
				{
					OFFSET 0.071702 0.114000 -0.018898
					CHANNELS 3 Zrotation Yrotation Xrotation
					JOINT lshoulder
					{
						OFFSET 0.122921 0.045205 -0.019046
						CHANNELS 3 Zrotation Yrotation Xrotation
						JOINT lelbow
						{
							OFFSET 0.255332 -0.015649 -0.022946
							CHANNELS 3 Zrotation Yrotation Xrotation
							JOINT lwrist
							{
								OFFSET 0.265709 0.012698 -0.007375
								CHANNELS 3 Zrotation Yrotation Xrotation
								End Site
								{
									OFFSET 0.000000 0.000000 0.000000
								}
							}
						}
					}
				}
				JOINT rclavicle
				{
					OFFSET -0.082954 0.112472 -0.023707
					CHANNELS 3 Zrotation Yrotation Xrotation
					JOINT rshoulder
					{
						OFFSET -0.113228 0.046853 -0.008472
						CHANNELS 3 Zrotation Yrotation Xrotation
						JOINT relbow
						{
							OFFSET -0.260127 -0.014369 -0.031269
							CHANNELS 3 Zrotation Yrotation Xrotation
							JOINT rwrist
							{
								OFFSET -0.269108 0.006794 -0.006027
								CHANNELS 3 Zrotation Yrotation Xrotation
								End Site
								{
									OFFSET 0.000000 0.000000 0.000000
								}
							}
						}
					}
				}
			}
		}
	}
}
MOTION
Frames: 17
Frame Time: 0.033333
-0.834136 0.492600 0.926956 82.676359 -2.813808 77.466137 0.006285 4.053633 -10.352417 -2.388846 10.516846 44.367991 3.293474 27.724213 -34.108805 0.000000 -0.000000 0.000000 1.509437 2.363287 -11.622166 -9.293880 -7.338868 45.982569 -1.023152 -20.533111 -36.352429 0.000000 -0.000000 0.000000 1.426117 1.593539 7.755431 -0.392135 -2.874554 19.367898 0.594044 1.434642 -4.712570 -5.099084 10.544669 12.561271 -0.225313 -4.104516 -14.760385 -15.652032 -19.896934 3.791065 -72.178628 -11.288490 7.050958 10.818320 7.518810 -27.243912 -19.441048 -17.172932 -1.656032 15.204255 31.096969 8.720762 72.073026 7.887108 10.705230 -13.236063 5.480742 -21.421152 2.739913 16.943339 -25.586431 
-0.832129 0.490333 0.925799 82.863992 -2.558331 77.891189 0.650238 4.422753 -10.871289 -2.393321 10.703020 44.840788 3.022447 27.269851 -34.427106 0.000000 -0.000000 0.000000 1.498151 1.833988 -12.112294 -9.300865 -7.832963 46.523383 -0.825929 -20.109968 -36.850522 0.000000 -0.000000 0.000000 1.450947 1.516083 7.867841 -0.416238 -2.818109 18.733016 0.750877 1.431388 -4.462003 -5.135293 10.979932 12.522252 -0.267410 -4.430035 -14.951664 -15.762435 -19.940964 3.986248 -72.400299 -11.202408 6.409533 11.588252 7.134155 -27.704520 -15.741374 -18.930873 -1.007471 15.580673 31.102269 9.285026 71.724682 8.180320 9.558975 -12.951724 5.140042 -21.462317 0.084487 17.083869 -24.788208 
-0.830856 0.488884 0.924755 83.289205 -2.588977 78.307396 0.560498 4.195137 -11.364687 -2.212520 10.549991 44.962631 2.978932 27.020205 -34.470027 0.000000 -0.000000 0.000000 1.532341 1.902917 -12.458970 -9.499258 -8.122483 46.589547 -1.040355 -20.220653 -36.686435 0.000000 -0.000000 0.000000 1.251369 1.492392 8.143662 -0.416221 -2.850326 18.326457 0.838352 1.236314 -4.362702 -5.435517 10.763550 12.671790 -0.010134 -4.348449 -15.560116 -15.891682 -19.848096 3.871229 -72.266749 -11.148085 6.325795 11.276765 7.647431 -28.095770 -15.506524 -19.282383 -1.000713 15.581037 30.953396 9.100062 71.582402 8.252809 9.616134 -12.758076 5.268213 -20.759528 -0.128994 17.504561 -23.949845 
-0.829358 0.487901 0.925009 83.374783 -2.627242 78.489847 0.272405 4.000248 -11.393599 -2.078537 10.093571 44.733931 3.027581 27.253479 -34.272169 0.000000 -0.000000 0.000000 1.952964 2.314258 -12.488009 -9.835984 -7.860768 46.497871 -0.605626 -20.685698 -36.941351 0.000000 -0.000000 0.000000 1.275921 1.402075 8.310189 -0.528237 -2.839542 18.726024 0.785218 1.342670 -4.730252 -5.533641 10.714835 12.674103 0.095760 -4.179002 -15.389834 -16.165333 -19.885787 3.950557 -71.874346 -11.179761 6.109364 10.872670 7.912382 -28.683897 -16.451804 -18.816478 -0.953868 15.788015 31.332006 9.571411 71.433570 8.299033 10.050121 -12.676096 5.272742 -20.389439 0.632494 17.188409 -24.000603 
-0.827739 0.487600 0.925886 83.451767 -2.869998 78.572243 -0.196293 3.809145 -11.219567 -2.062515 9.753970 44.397224 2.963333 27.607886 -34.455563 0.000000 -0.000000 0.000000 1.995969 2.701916 -12.442705 -10.165506 -7.555032 46.513147 -0.681069 -21.043735 -36.771454 0.000000 -0.000000 0.000000 1.237644 1.482519 8.423828 -0.615701 -2.725859 18.598518 0.786984 1.506320 -4.241769 -5.650419 10.726261 12.728884 0.325180 -3.881582 -15.611740 -16.243047 -20.235414 3.827954 -71.556288 -11.250817 6.070431 10.573254 7.964774 -28.668006 -16.138829 -19.234734 -1.356530 15.841731 31.499739 9.371626 71.343883 8.126536 9.939236 -12.639613 5.494969 -20.376224 0.557836 17.702001 -24.486629 
-0.826536 0.487511 0.927674 83.693047 -3.024731 78.951603 -0.479774 3.447167 -11.220680 -2.005505 9.790759 43.682021 3.280004 27.546871 -33.997253 0.000000 -0.000000 0.000000 1.907435 2.889276 -12.605603 -10.323326 -7.604604 46.108952 -0.694882 -20.983141 -36.364518 0.000000 -0.000000 0.000000 1.263261 1.502003 8.276458 -0.505364 -2.797211 19.065584 0.839928 1.548098 -4.736298 -5.795557 10.839551 12.848466 0.294503 -3.757470 -15.353390 -16.260726 -20.047458 3.750552 -71.633818 -11.056086 6.428083 10.647828 7.556030 -28.775902 -17.173110 -18.917756 -1.488807 15.878470 31.360933 9.475409 71.319102 7.807484 10.200384 -13.029729 6.034144 -21.165160 1.474503 17.743881 -24.088359 
-0.824589 0.487462 0.929421 83.886747 -3.274501 79.204207 -0.616475 3.344655 -10.975793 -2.599627 9.636647 42.930846 3.185680 27.403592 -33.565756 0.000000 -0.000000 0.000000 1.606293 2.814709 -12.634539 -10.206070 -7.741103 45.783725 -0.707055 -21.105405 -36.076327 0.000000 -0.000000 0.000000 1.278256 1.490293 8.295220 -0.399125 -2.840285 18.686439 0.926596 1.506796 -4.516503 -5.906615 10.773587 13.174579 0.201722 -3.390757 -15.688805 -16.313113 -20.175226 3.896113 -71.697493 -10.896353 6.557604 10.206303 7.610301 -28.664994 -16.879070 -18.821951 -2.262570 15.636161 31.279707 9.184877 71.353413 7.685277 10.358210 -12.810957 5.677000 -20.767133 1.157405 17.596518 -24.482984 
-0.823118 0.486359 0.931431 83.988149 -3.521961 79.471602 -0.436246 3.811331 -10.603314 -3.136059 9.747134 42.036785 3.308762 26.742072 -33.381376 0.000000 -0.000000 0.000000 1.350280 2.632865 -12.613404 -9.996367 -7.736070 45.397366 -0.762999 -20.851756 -35.706281 0.000000 -0.000000 0.000000 1.335777 1.316004 8.434895 -0.394136 -2.884398 18.214212 0.903122 1.415700 -4.326821 -5.652271 10.757904 12.687167 0.050880 -3.160247 -15.580354 -16.213063 -20.138496 4.062874 -71.949948 -10.752017 6.680271 10.546243 7.349356 -28.369645 -18.167284 -17.960139 -2.491226 15.571515 31.220790 9.370601 71.470953 8.011077 10.391261 -12.966342 5.367084 -20.952372 2.114000 17.262879 -24.534116 
-0.821810 0.484781 0.933601 84.067770 -3.872981 79.782305 -0.480756 3.876110 -10.275068 -3.584710 9.979925 40.965781 3.281327 26.425834 -33.212825 0.000000 -0.000000 0.000000 0.833922 2.227329 -12.706409 -9.880503 -7.891709 45.113262 -1.200660 -20.465668 -35.301297 0.000000 -0.000000 0.000000 1.438201 1.320272 8.202443 -0.384328 -2.896924 18.376077 0.824884 1.366896 -4.356319 -5.344521 10.654357 12.106583 -0.094126 -3.425861 -15.624092 -15.925750 -20.060691 3.651583 -72.194003 -10.721637 6.927812 10.432157 7.656642 -28.336022 -16.469704 -19.139777 -2.628512 15.478209 31.004621 8.786812 71.458475 7.872553 10.363649 -12.615822 4.973956 -21.414648 0.896939 17.398746 -24.721558 
-0.820144 0.481829 0.935916 83.880066 -4.115028 80.093510 -0.352185 4.336835 -10.024515 -3.634159 10.213250 40.344301 3.123631 25.638823 -32.936306 0.000000 -0.000000 0.000000 0.810102 1.932111 -12.766622 -9.731551 -7.547359 44.693158 -0.874728 -20.184782 -35.692019 0.000000 -0.000000 0.000000 1.635622 1.204481 8.218579 -0.414400 -2.810907 17.745390 0.950734 1.387557 -4.163224 -5.316543 10.743116 11.625059 -0.330777 -3.248046 -15.558952 -16.369949 -19.909143 3.867716 -71.874579 -10.569149 6.443173 10.414431 7.740929 -28.188128 -15.779988 -19.452760 -1.740501 15.558608 30.854121 9.223705 71.351613 8.186435 9.887008 -12.499902 4.674790 -21.146939 0.647862 17.411986 -24.323426 
-0.818889 0.478085 0.938584 83.498276 -4.305266 80.615917 -0.334811 4.715129 -9.954650 -3.588262 10.142061 39.257248 3.081975 25.240363 -31.902386 0.000000 -0.000000 0.000000 0.920796 1.850385 -12.742438 -9.593117 -7.492815 43.550086 -0.818729 -20.240974 -35.713706 0.000000 -0.000000 0.000000 1.802030 1.266722 7.725721 -0.265366 -2.748030 17.931872 1.022314 1.392098 -4.358347 -5.235047 10.791559 11.325050 -0.286621 -3.215312 -15.843913 -16.641329 -19.976782 3.976648 -71.845264 -10.226912 6.616868 10.591063 6.820557 -28.293486 -15.428045 -18.955564 -1.588995 15.744475 30.907605 9.261078 71.174810 8.129329 9.818169 -12.745473 4.361724 -21.726250 -0.009266 17.157595 -23.592620 
-0.817563 0.474553 0.942891 82.890127 -4.457209 80.894674 -0.348860 4.420276 -9.512651 -3.329744 10.420359 38.221188 2.840127 25.391547 -30.911823 0.000000 -0.000000 0.000000 0.986719 1.712271 -11.824033 -8.955509 -6.979326 41.442197 -0.772585 -19.820964 -35.321689 0.000000 -0.000000 0.000000 2.116968 1.505314 7.481739 -0.148364 -2.797437 17.979435 1.065303 1.501884 -4.596888 -4.952757 10.682732 10.889334 -0.244492 -2.898414 -15.714123 -16.999548 -20.030053 4.107043 -71.665939 -10.157147 6.946908 10.137631 6.808751 -27.724642 -14.769702 -19.439884 -2.461568 15.751459 30.750187 9.057987 71.132544 7.921520 9.926374 -12.380195 3.119242 -21.774997 -0.614196 16.784245 -23.471936 
-0.816274 0.469688 0.948775 82.006266 -4.602172 81.257002 -0.292635 4.374896 -9.034281 -2.748134 11.063825 37.064221 2.824352 25.268445 -29.374745 0.000000 -0.000000 0.000000 1.155006 1.762736 -10.902384 -8.123585 -6.746402 38.969685 -0.602765 -19.274401 -34.786259 0.000000 -0.000000 0.000000 1.875109 1.799404 6.727931 0.112951 -2.898397 18.738171 1.349960 1.634871 -5.126450 -4.462300 11.123870 10.516661 -0.288382 -2.916168 -15.597811 -16.843375 -19.872467 3.923359 -71.708079 -10.213740 6.925098 9.755737 6.747367 -27.879619 -15.577049 -19.124401 -1.359634 15.980734 30.728031 9.172611 70.849067 7.977434 9.771796 -12.312906 2.413305 -22.925332 0.394246 17.092724 -22.881770 
-0.814782 0.464256 0.955968 81.269546 -4.538395 81.544926 -0.105525 4.312897 -8.381087 -2.471620 10.973996 35.595526 3.361793 24.905325 -27.271287 0.000000 -0.000000 0.000000 1.368768 1.282143 -9.756085 -7.584667 -6.974050 36.322852 -1.128182 -18.713769 -33.727120 0.000000 -0.000000 0.000000 1.651582 2.055370 5.810081 0.294818 -3.149559 19.248868 1.463891 1.677680 -5.372228 -4.300321 11.120828 10.315462 0.142147 -2.639500 -15.588753 -16.776730 -20.139949 4.232477 -71.712486 -10.178209 7.453051 9.795281 6.522401 -26.423628 -17.356991 -18.180825 -1.495240 16.098048 30.699471 9.146421 70.921534 7.670624 10.070764 -12.590092 2.279401 -23.383702 1.904400 16.738852 -23.003978 
-0.813276 0.460438 0.963285 80.614946 -4.519648 81.896326 -0.279409 4.103664 -7.796010 -2.292277 11.014636 33.729051 3.230653 25.333422 -26.558799 0.000000 -0.000000 0.000000 1.131924 0.382201 -8.606144 -6.517105 -7.045462 33.337233 -1.384547 -17.866990 -32.834201 0.000000 -0.000000 0.000000 1.601768 2.392463 5.023604 0.243427 -3.282422 19.195491 1.477571 1.486579 -5.364508 -4.376058 11.134520 9.901286 0.057797 -2.607016 -15.799813 -16.800025 -19.954822 4.186639 -71.599066 -10.188422 7.382570 9.807595 6.833169 -25.944310 -18.239881 -17.773903 -0.442636 15.848986 30.286970 8.653620 71.116171 7.410005 10.064493 -12.163908 1.890726 -22.737648 3.944387 16.872770 -22.413655 
-0.812372 0.456264 0.970651 80.111467 -4.228400 82.431040 -0.296821 4.059573 -7.460232 -2.233071 11.032358 31.560202 3.485464 25.895606 -27.097242 0.000000 -0.000000 0.000000 1.363352 -0.361555 -7.579226 -5.470123 -7.105867 30.211332 -1.235795 -17.003684 -31.414185 0.000000 -0.000000 0.000000 1.375926 2.835176 3.983972 0.300199 -3.271153 19.302410 1.481898 1.573574 -5.473802 -4.211738 11.240095 8.894124 -0.242700 -2.948465 -15.650033 -16.584593 -19.764997 4.052210 -71.744947 -10.256334 7.336720 9.944300 7.310725 -26.085633 -19.367075 -16.593770 0.465239 16.144626 30.049744 8.717295 71.292637 6.981276 9.816407 -12.460209 1.602689 -22.900928 4.608709 16.174291 -21.469585 
-0.811114 0.452671 0.978020 79.804178 -3.917192 82.689753 -0.583618 3.795394 -6.731972 -2.377245 10.646191 28.621502 3.541092 25.808107 -27.006969 0.000000 -0.000000 0.000000 1.738428 -0.964533 -5.978418 -4.791251 -7.103257 26.606430 -1.373805 -16.402311 -29.565577 0.000000 -0.000000 0.000000 1.148281 3.339775 3.177296 0.227634 -3.220324 19.795201 1.448984 1.682098 -5.949565 -4.277129 11.322688 8.069278 -0.636198 -3.199875 -15.422201 -16.417844 -19.806880 3.896390 -72.024466 -10.177489 7.836948 10.176103 7.719111 -26.132250 -20.133885 -16.501481 0.705959 16.126591 30.154044 8.577016 71.830593 6.300031 10.370416 -12.438501 1.405498 -23.154676 6.059370 16.298849 -22.085067 
